<svg id="Layer_1" data-name="Layer 1" xmlns="http://www.w3.org/2000/svg" viewBox="0 0 1134.55 152.31"><defs><style>.cls-1{fill:#00097c;}.cls-2{fill:#70f69a;}.cls-3{fill:#65e583;}.cls-4{fill:#f2f2f2;}</style></defs><path class="cls-1" d="M200.39,52.61H215.2L237.6,90.2h.09L259.9,52.61h13.54l-29.22,48.11H229.81Z"/><path class="cls-1" d="M277.34,86.5c0-9.35,7.69-13.25,19.77-13.25H326v-1c0-7.89-5.36-11.78-18.61-11.78-12.56,0-16.65,3.5-16.65,7.59a5.93,5.93,0,0,0,.1,1.17H279a17.16,17.16,0,0,1-.09-1.75c0-9.35,8.76-15.88,28.83-15.88,20.45,0,30.77,8.38,30.77,21.82v27.27H326c.29-3.31.48-8.28.58-11.59h-.1c-2.14,7.69-9,12.47-25.22,12.47C283.77,101.6,277.34,94.1,277.34,86.5ZM326,81v-.29H300c-7.3,0-11.3.78-11.3,5.35,0,3.22,2.73,6.82,15,6.82C319.12,92.83,326,86.6,326,81Z"/><path class="cls-1" d="M348.34,52.61h12.47l-.19,14.12h.19c3.6-9.84,11.4-15.1,27-15.1,19.67,0,26.59,9.45,26.59,21.23v27.86H401.91V76.18c0-8.58-4.38-14.32-18.8-14.32-11.68,0-22.3,5.55-22.3,17.24v21.62H348.34Z"/><path class="cls-1" d="M424.22,52.61h12.46l-.19,14.7h.19c3-8.67,9.84-15.68,23.38-15.68,15.88,0,21.91,8.77,21.91,22.21,0,3.7-.19,7-.29,8.57H470c.1-1.17.2-3.21.2-5,0-10.32-3.41-15.58-13.73-15.58-12.76,0-19.78,9.93-19.78,20.65v18.21H424.22Z"/><path class="cls-1" d="M490.74,76.76c0-12.66,9.35-25.13,33-25.13s33,12.47,33,25.13-9.16,24.93-33,24.93S490.74,89.52,490.74,76.76Zm53.57,0c0-8-5.55-15.39-20.55-15.39s-20.55,7.4-20.55,15.39S508.66,92,523.76,92,544.31,84.75,544.31,76.76Z"/><path class="cls-1" d="M565.16,84.75h11.78c.1,4,2,8.08,17,8.08,14.81,0,18.12-2.82,18.12-6.62,0-1.95-.78-3.41-3.9-4.09-3.4-.68-10.71-.88-16.94-1.07-9.94-.3-17.24-1.47-20.94-3.51s-5.16-5.65-5.16-9.64c0-9.74,10.42-16.27,28.82-16.27,22.89,0,27.76,8.18,27.76,17.24H610c-.1-4.77-2.44-8.37-15.59-8.37-11.39,0-16.75,2.24-16.75,6.81,0,2,1,3.31,4.09,4,3.41.87,9.64.87,17.24,1.26,8.57.39,14.9,1,19.09,2.73,4.48,2,6.53,5.94,6.53,10.52,0,7.4-5.55,15.87-30.59,15.87S565.16,92,565.16,84.75Z"/><path class="cls-1" d="M633,84.75h11.78c.1,4,2,8.08,17,8.08,14.8,0,18.11-2.82,18.11-6.62,0-1.95-.78-3.41-3.9-4.09-3.4-.68-10.71-.88-16.94-1.07-9.94-.3-17.24-1.47-20.94-3.51S633,71.89,633,67.9c0-9.74,10.42-16.27,28.83-16.27,22.88,0,27.75,8.18,27.75,17.24H677.75c-.1-4.77-2.44-8.37-15.59-8.37-11.39,0-16.75,2.24-16.75,6.81,0,2,1,3.31,4.09,4,3.41.87,9.65.87,17.24,1.26,8.57.39,14.9,1,19.09,2.73,4.48,2,6.53,5.94,6.53,10.52,0,7.4-5.55,15.87-30.58,15.87S633,92,633,84.75Z"/><path class="cls-1" d="M701.22,79.78V52.61h12.47V77.15c0,8.86,4.48,14.32,18.21,14.32,12.37,0,22.89-7,22.89-19.19V52.61h12.47v48.11H754.79c.2-3.51.39-9.93.39-14.9H755c-2.93,10.81-11.59,15.87-27.18,15.87C709.11,101.69,701.22,91.37,701.22,79.78Z"/><path class="cls-1" d="M777.59,52.61h12.46l-.19,14.22H790c3.22-9.84,10.43-15.2,22.31-15.2,13,0,20,5.94,21.72,15.1h.1c2.62-10.13,10.81-15.1,22.59-15.1,15.19,0,22,8,22,20.85v28.24H866.22v-25c0-9-4-13.83-14.13-13.83-8.08,0-17.72,4.87-17.72,17v21.82H821.9v-25c0-9-4.09-13.83-14.22-13.83-8.08,0-17.63,5.45-17.63,17v21.82H777.59Z"/><path class="cls-1" d="M893.1,87.47h13v13.25h-13Z"/><path class="cls-1" d="M920.08,76.08c0-13.54,11-24.45,31-24.45,13.54,0,20.94,3.8,23.48,10.42h.09V32.54h12.47v68.18H974.62c.2-3.51.39-8.38.49-12.37h-.19c-2.34,7.89-9.84,13.34-24.26,13.34C931.18,101.69,920.08,91.56,920.08,76.08Zm54.54.58V75.2c0-7.6-7-13.83-21.81-13.83-13.54,0-20.36,6.33-20.36,14.71,0,9.74,7.5,15.87,20.26,15.87C967.32,92,974.62,83.19,974.62,76.66Z"/><path class="cls-1" d="M1059,79.58H1009.3c.88,7.31,5.55,13.25,20.26,13.25,12.76,0,17.24-3.8,18-7.79H1059c-.58,8.38-8.86,16.65-29.41,16.65-25.42,0-32.83-12.66-32.83-24.64,0-15.39,11.79-25.42,32-25.42,20.55,0,30.19,9.16,30.19,24.06Zm-11.39-7.79c0-6.42-5.17-11.29-18.31-11.29-12.08,0-17.93,4.09-19.58,11.59h37.89Z"/><path class="cls-1" d="M1061.51,52.61h14.8l22.4,37.59h.1L1121,52.61h13.53l-29.22,48.11h-14.41Z"/><path class="cls-2" d="M68.23,0,34.12,120.61H146.45L114.06,71.33c13.95,0,36.72-8,44.67-33C166.94,12.54,146.56,0,120.61,0Z"/><polygon class="cls-3" points="122.8 42.39 58.57 42.39 36.44 120.61 72.08 120.61 122.8 42.39"/><polygon class="cls-4" points="72.08 120.61 41.35 120.69 35.49 152.31 52.32 151.34 72.08 120.61"/><polygon class="cls-1" points="0 26.88 116.82 26.88 35.49 152.31 0 26.88"/></svg>