<svg id="Layer_1" data-name="Layer 1" xmlns="http://www.w3.org/2000/svg" viewBox="0 0 1181.32 235.75"><defs><style>.cls-1{fill:#fff;}.cls-2{fill:#00097c;}.cls-3{fill:#70f69a;}.cls-4{fill:#65e583;}.cls-5{opacity:0.1;}</style></defs><rect class="cls-1" width="1247.22" height="235.75"/><rect class="cls-2" x="-0.67" y="-0.33" width="235.75" height="235.75"/><path class="cls-2" d="M285.78,104.42H300l21.48,36h.09l21.29-36h13l-28,46.12H314Z"/><path class="cls-2" d="M359.55,136.91c0-9,7.37-12.7,18.95-12.7h27.73v-.93c0-7.56-5.13-11.3-17.83-11.3-12,0-16,3.36-16,7.29a6,6,0,0,0,.09,1.12H361.13a15.79,15.79,0,0,1-.09-1.68c0-9,8.4-15.22,27.64-15.22,19.6,0,29.5,8,29.5,20.91v26.14H406.23c.28-3.17.47-7.93.56-11.11h-.09c-2.06,7.38-8.69,11.95-24.19,11.95C365.71,151.38,359.55,144.19,359.55,136.91Zm46.68-5.32v-.28H381.3c-7,0-10.83.75-10.83,5.14,0,3.08,2.61,6.53,14.38,6.53C399.6,143,406.23,137,406.23,131.59Z"/><path class="cls-2" d="M427.62,104.42h11.95L439.38,118h.19c3.45-9.43,10.92-14.47,25.86-14.47,18.86,0,25.49,9.05,25.49,20.35v26.7H479V127c0-8.22-4.2-13.73-18-13.73-11.21,0-21.38,5.32-21.38,16.53v20.72H427.62Z"/><path class="cls-2" d="M500.35,104.42H512.3l-.18,14.1h.18c2.9-8.31,9.43-15,22.41-15,15.22,0,21,8.4,21,21.28,0,3.55-.19,6.73-.28,8.22h-11.2c.09-1.12.18-3.08.18-4.76,0-9.9-3.26-14.94-13.16-14.94-12.23,0-19,9.52-19,19.79v17.46H500.35Z"/><path class="cls-2" d="M564.13,127.58c0-12.14,9-24.09,31.65-24.09s31.65,12,31.65,24.09-8.78,23.9-31.65,23.9S564.13,139.81,564.13,127.58Zm51.35,0c0-7.66-5.32-14.76-19.7-14.76s-19.7,7.1-19.7,14.76,5.23,14.56,19.7,14.56S615.48,135.23,615.48,127.58Z"/><path class="cls-2" d="M635.46,135.23h11.3c.09,3.83,2,7.75,16.34,7.75,14.19,0,17.37-2.71,17.37-6.35,0-1.87-.75-3.27-3.74-3.92-3.27-.65-10.27-.84-16.24-1-9.53-.28-16.53-1.4-20.08-3.36s-4.95-5.41-4.95-9.24c0-9.34,10-15.59,27.64-15.59,21.94,0,26.61,7.84,26.61,16.52h-11.3c-.09-4.57-2.33-8-14.94-8-10.92,0-16.06,2.15-16.06,6.54,0,1.87.94,3.17,3.93,3.83,3.26.84,9.24.84,16.52,1.21,8.22.37,14.29.93,18.3,2.61a10.46,10.46,0,0,1,6.26,10.09c0,7.09-5.32,15.22-29.32,15.22S635.46,142.14,635.46,135.23Z"/><path class="cls-2" d="M700.45,135.23h11.3c.09,3.83,2,7.75,16.34,7.75,14.19,0,17.37-2.71,17.37-6.35,0-1.87-.75-3.27-3.74-3.92-3.27-.65-10.27-.84-16.25-1-9.52-.28-16.52-1.4-20.07-3.36s-4.95-5.41-4.95-9.24c0-9.34,10-15.59,27.64-15.59,21.94,0,26.61,7.84,26.61,16.52H743.4c-.09-4.57-2.33-8-14.94-8-10.92,0-16.06,2.15-16.06,6.54,0,1.87.94,3.17,3.92,3.83,3.27.84,9.25.84,16.53,1.21,8.22.37,14.29.93,18.3,2.61a10.46,10.46,0,0,1,6.26,10.09c0,7.09-5.33,15.22-29.32,15.22S700.45,142.14,700.45,135.23Z"/><path class="cls-2" d="M765.91,130.47v-26h12V128c0,8.5,4.29,13.72,17.46,13.72,11.86,0,21.94-6.72,21.94-18.39V104.42h12v46.12h-12c.19-3.36.37-9.52.37-14.28h-.18c-2.8,10.36-11.11,15.22-26.05,15.22C773.47,151.48,765.91,141.58,765.91,130.47Z"/><path class="cls-2" d="M839.11,104.42h11.95l-.18,13.63H851c3.08-9.43,10-14.56,21.38-14.56,12.42,0,19.14,5.69,20.82,14.47h.1c2.52-9.71,10.36-14.47,21.66-14.47,14.56,0,21.1,7.65,21.1,20v27.07H924.08v-24c0-8.59-3.83-13.26-13.54-13.26-7.75,0-17,4.67-17,16.34v20.91H881.6v-24c0-8.59-3.93-13.26-13.64-13.26-7.75,0-16.9,5.23-16.9,16.34v20.91H839.11Z"/><path class="cls-2" d="M949.85,137.85h12.51v12.69H949.85Z"/><path class="cls-2" d="M975.72,126.92c0-13,10.55-23.43,29.69-23.43,13,0,20.07,3.64,22.5,10h.09V85.19h12v65.35h-12c.19-3.36.38-8,.47-11.85h-.19c-2.24,7.56-9.43,12.79-23.25,12.79C986.36,151.48,975.72,141.77,975.72,126.92Zm52.28.56v-1.4c0-7.28-6.72-13.26-20.91-13.26-13,0-19.52,6.07-19.52,14.1,0,9.34,7.19,15.22,19.43,15.22C1021,142.14,1028,133.74,1028,127.48Z"/><path class="cls-2" d="M1108.86,130.28h-47.61c.84,7,5.32,12.7,19.42,12.7,12.23,0,16.52-3.64,17.27-7.47h10.92c-.56,8-8.49,16-28.19,16-24.37,0-31.47-12.14-31.47-23.62,0-14.76,11.3-24.37,30.72-24.37,19.7,0,28.94,8.77,28.94,23.06Zm-10.92-7.47c0-6.16-5-10.83-17.55-10.83-11.58,0-17.18,3.92-18.77,11.11h36.32Z"/><path class="cls-2" d="M1111.29,104.42h14.2l21.47,36h.1l21.28-36h13l-28,46.12h-13.82Z"/><path class="cls-3" d="M107.21,55.08,77.3,160.86h98.52l-28.41-43.22c12.23,0,32.2-7,39.17-28.92,7.2-22.64-10.67-33.64-33.43-33.64Z"/><polygon class="cls-4" points="155.07 92.26 98.74 92.26 79.34 160.86 110.59 160.86 155.07 92.26"/><polygon class="cls-5" points="110.59 160.86 83.64 160.93 78.5 188.66 93.26 187.81 110.59 160.86"/><polygon class="cls-1" points="47.38 78.66 149.83 78.66 78.5 188.66 47.38 78.66"/></svg>